<svg width="1440" height="837" viewBox="0 0 1440 837" fill="none" xmlns="http://www.w3.org/2000/svg">
<rect width="1440" height="800" fill="#F5E6E0"/>
<path d="M538.5 442L596.957 543.25H480.043L538.5 442Z" fill="#FFFDFD"/>
<path d="M833.735 216.741L774.421 317.491L716.826 215.749L833.735 216.741Z" fill="#FFFDFD"/>
<path d="M1241.34 270L1226.88 270L1226.88 232.752L1203.97 232.752L1203.97 261.296L1189.76 261.296L1189.76 232.752L1152 232.752L1152 214.832L1241.34 214.832L1241.34 270ZM1169.02 337.491L1169.02 301.907L1152 296.019L1152 277.203L1241.47 309.331L1241.47 330.195L1152 362.323L1152 343.379L1169.02 337.491ZM1183.36 332.627L1220.74 319.699L1183.36 306.771L1183.36 332.627ZM1151.1 405.18C1151.1 398.951 1152.17 393.319 1154.3 388.284C1156.44 383.335 1159.51 379.409 1163.52 376.508C1167.53 373.607 1172.27 372.113 1177.73 372.028L1177.73 391.228C1174.06 391.484 1171.16 392.764 1169.02 395.068C1166.89 397.457 1165.82 400.7 1165.82 404.796C1165.82 408.977 1166.81 412.263 1168.77 414.652C1170.82 417.041 1173.46 418.236 1176.7 418.236C1179.35 418.236 1181.53 417.425 1183.23 415.804C1184.94 414.183 1186.26 412.135 1187.2 409.66C1188.22 407.271 1189.33 403.943 1190.53 399.676C1192.23 393.873 1193.9 389.137 1195.52 385.468C1197.23 381.884 1199.74 378.769 1203.07 376.124C1206.49 373.564 1211.01 372.284 1216.64 372.284C1221.93 372.284 1226.54 373.607 1230.46 376.252C1234.39 378.897 1237.38 382.609 1239.42 387.388C1241.56 392.167 1242.62 397.628 1242.62 403.772C1242.62 412.988 1240.36 420.455 1235.84 426.172C1231.4 431.975 1225.17 435.175 1217.15 435.772L1217.15 416.06C1220.22 415.889 1222.74 414.567 1224.7 412.092C1226.75 409.703 1227.78 406.503 1227.78 402.492C1227.78 398.993 1226.88 396.177 1225.09 394.044C1223.3 391.996 1220.69 390.972 1217.28 390.972C1214.89 390.972 1212.89 391.74 1211.26 393.276C1209.73 394.897 1208.45 396.86 1207.42 399.164C1206.49 401.553 1205.38 404.881 1204.1 409.148C1202.39 414.951 1200.68 419.687 1198.98 423.356C1197.27 427.025 1194.71 430.183 1191.3 432.828C1187.88 435.473 1183.4 436.796 1177.86 436.796C1173.08 436.796 1168.64 435.559 1164.54 433.084C1160.45 430.609 1157.16 426.983 1154.69 422.204C1152.3 417.425 1151.1 411.751 1151.1 405.18ZM1241.34 526.444L1152 526.444L1152 508.524L1190.02 508.524L1190.02 470.252L1152 470.252L1152 452.332L1241.34 452.332L1241.34 470.252L1204.61 470.252L1204.61 508.524L1241.34 508.524L1241.34 526.444ZM1241.34 562.002L1152 562.002L1152 544.082L1241.34 544.082L1241.34 562.002ZM1151.1 621.179C1151.1 612.816 1153.07 605.136 1156.99 598.139C1160.92 591.142 1166.34 585.595 1173.25 581.499C1180.25 577.403 1188.14 575.355 1196.93 575.355C1205.63 575.355 1213.44 577.403 1220.35 581.499C1227.35 585.595 1232.81 591.142 1236.74 598.139C1240.66 605.136 1242.62 612.816 1242.62 621.179C1242.62 629.627 1240.66 637.307 1236.74 644.219C1232.81 651.216 1227.35 656.72 1220.35 660.731C1213.44 664.827 1205.63 666.875 1196.93 666.875C1188.14 666.875 1180.25 664.827 1173.25 660.731C1166.34 656.72 1160.92 651.216 1156.99 644.219C1153.07 637.222 1151.1 629.542 1151.1 621.179ZM1167.1 621.179C1167.1 626.555 1168.3 631.291 1170.69 635.387C1173.16 639.483 1176.66 642.683 1181.18 644.987C1185.71 647.291 1190.95 648.443 1196.93 648.443C1202.9 648.443 1208.11 647.291 1212.54 644.987C1217.07 642.683 1220.52 639.483 1222.91 635.387C1225.3 631.291 1226.5 626.555 1226.5 621.179C1226.5 615.803 1225.3 611.024 1222.91 606.843C1220.52 602.747 1217.07 599.547 1212.54 597.243C1208.11 594.939 1202.9 593.787 1196.93 593.787C1190.95 593.787 1185.71 594.939 1181.18 597.243C1176.66 599.547 1173.16 602.747 1170.69 606.843C1168.3 611.024 1167.1 615.803 1167.1 621.179ZM1152 756.623L1152 738.703L1213.31 698.127L1152 698.127L1152 680.207L1241.47 680.207L1241.47 698.127L1180.03 738.703L1241.47 738.703L1241.47 756.623L1152 756.623Z" fill="#F5E6E0"/>
<path d="M1241.34 270L1241.34 273L1244.34 273L1244.34 270L1241.34 270ZM1226.88 270L1223.88 270L1223.88 273L1226.88 273L1226.88 270ZM1226.88 232.752L1229.88 232.752L1229.88 229.752L1226.88 229.752L1226.88 232.752ZM1203.97 232.752L1203.97 229.752L1200.97 229.752L1200.97 232.752L1203.97 232.752ZM1203.97 261.296L1203.97 264.296L1206.97 264.296L1206.97 261.296L1203.97 261.296ZM1189.76 261.296L1186.76 261.296L1186.76 264.296L1189.76 264.296L1189.76 261.296ZM1189.76 232.752L1192.76 232.752L1192.76 229.752L1189.76 229.752L1189.76 232.752ZM1152 232.752L1149 232.752L1149 235.752L1152 235.752L1152 232.752ZM1152 214.832L1152 211.832L1149 211.832L1149 214.832L1152 214.832ZM1241.34 214.832L1244.34 214.832L1244.34 211.832L1241.34 211.832L1241.34 214.832ZM1241.34 267L1226.88 267L1226.88 273L1241.34 273L1241.34 267ZM1229.88 270L1229.88 232.752L1223.88 232.752L1223.88 270L1229.88 270ZM1226.88 229.752L1203.97 229.752L1203.97 235.752L1226.88 235.752L1226.88 229.752ZM1200.97 232.752L1200.97 261.296L1206.97 261.296L1206.97 232.752L1200.97 232.752ZM1203.97 258.296L1189.76 258.296L1189.76 264.296L1203.97 264.296L1203.97 258.296ZM1192.76 261.296L1192.76 232.752L1186.76 232.752L1186.76 261.296L1192.76 261.296ZM1189.76 229.752L1152 229.752L1152 235.752L1189.76 235.752L1189.76 229.752ZM1155 232.752L1155 214.832L1149 214.832L1149 232.752L1155 232.752ZM1152 217.832L1241.34 217.832L1241.34 211.832L1152 211.832L1152 217.832ZM1238.34 214.832L1238.34 270L1244.34 270L1244.34 214.832L1238.34 214.832ZM1169.02 337.491L1170 340.326L1172.02 339.628L1172.02 337.491L1169.02 337.491ZM1169.02 301.907L1172.02 301.907L1172.02 299.77L1170 299.072L1169.02 301.907ZM1152 296.019L1149 296.019L1149 298.156L1151.02 298.854L1152 296.019ZM1152 277.203L1153.01 274.38L1149 272.938L1149 277.203L1152 277.203ZM1241.47 309.331L1244.47 309.331L1244.47 307.221L1242.49 306.508L1241.47 309.331ZM1241.47 330.195L1242.49 333.018L1244.47 332.305L1244.47 330.195L1241.47 330.195ZM1152 362.323L1149 362.323L1149 366.588L1153.01 365.146L1152 362.323ZM1152 343.379L1151.02 340.544L1149 341.242L1149 343.379L1152 343.379ZM1183.36 332.627L1180.36 332.627L1180.36 336.839L1184.34 335.462L1183.36 332.627ZM1220.74 319.699L1221.72 322.534L1229.91 319.699L1221.72 316.864L1220.74 319.699ZM1183.36 306.771L1184.34 303.936L1180.36 302.559L1180.36 306.771L1183.36 306.771ZM1172.02 337.491L1172.02 301.907L1166.02 301.907L1166.02 337.491L1172.02 337.491ZM1170 299.072L1152.98 293.184L1151.02 298.854L1168.04 304.742L1170 299.072ZM1155 296.019L1155 277.203L1149 277.203L1149 296.019L1155 296.019ZM1150.99 280.026L1240.46 312.154L1242.49 306.508L1153.01 274.38L1150.99 280.026ZM1238.47 309.331L1238.47 330.195L1244.47 330.195L1244.47 309.331L1238.47 309.331ZM1240.46 327.372L1150.99 359.5L1153.01 365.146L1242.49 333.018L1240.46 327.372ZM1155 362.323L1155 343.379L1149 343.379L1149 362.323L1155 362.323ZM1152.98 346.214L1170 340.326L1168.04 334.656L1151.02 340.544L1152.98 346.214ZM1184.34 335.462L1221.72 322.534L1219.76 316.864L1182.38 329.792L1184.34 335.462ZM1221.72 316.864L1184.34 303.936L1182.38 309.606L1219.76 322.534L1221.72 316.864ZM1180.36 306.771L1180.36 332.627L1186.36 332.627L1186.36 306.771L1180.36 306.771ZM1154.3 388.284L1151.55 387.097L1151.55 387.105L1151.54 387.114L1154.3 388.284ZM1163.52 376.508L1161.76 374.077L1161.76 374.077L1163.52 376.508ZM1177.73 372.028L1180.73 372.028L1180.73 368.981L1177.68 369.028L1177.73 372.028ZM1177.73 391.228L1177.94 394.221L1180.73 394.026L1180.73 391.228L1177.73 391.228ZM1169.02 395.068L1166.82 393.03L1166.8 393.05L1166.79 393.07L1169.02 395.068ZM1168.77 414.652L1166.45 416.556L1166.47 416.581L1166.49 416.604L1168.77 414.652ZM1183.23 415.804L1181.17 413.629L1181.17 413.629L1183.23 415.804ZM1187.2 409.66L1184.44 408.478L1184.42 408.537L1184.39 408.596L1187.2 409.66ZM1190.53 399.676L1187.65 398.829L1187.64 398.848L1187.64 398.867L1190.53 399.676ZM1195.52 385.468L1192.81 384.178L1192.79 384.217L1192.78 384.256L1195.52 385.468ZM1203.07 376.124L1201.27 373.724L1201.24 373.749L1201.21 373.776L1203.07 376.124ZM1230.46 376.252L1228.79 378.74L1228.79 378.74L1230.46 376.252ZM1239.42 387.388L1236.67 388.57L1236.68 388.59L1236.68 388.611L1239.42 387.388ZM1235.84 426.172L1233.49 424.311L1233.47 424.33L1233.46 424.35L1235.84 426.172ZM1217.15 435.772L1214.15 435.772L1214.15 439.004L1217.37 438.764L1217.15 435.772ZM1217.15 416.06L1216.99 413.065L1214.15 413.222L1214.15 416.06L1217.15 416.06ZM1224.7 412.092L1222.43 410.14L1222.39 410.183L1222.35 410.228L1224.7 412.092ZM1225.09 394.044L1227.39 392.114L1227.37 392.091L1227.35 392.068L1225.09 394.044ZM1211.26 393.276L1209.2 391.098L1209.14 391.154L1209.09 391.213L1211.26 393.276ZM1207.42 399.164L1204.68 397.946L1204.66 398.006L1204.63 398.067L1207.42 399.164ZM1204.1 409.148L1201.22 408.286L1201.22 408.294L1201.22 408.302L1204.1 409.148ZM1191.3 432.828L1189.46 430.457L1189.46 430.457L1191.3 432.828ZM1164.54 433.084L1166.1 430.516L1166.1 430.516L1164.54 433.084ZM1154.69 422.204L1152 423.546L1152.01 423.565L1152.02 423.584L1154.69 422.204ZM1154.1 405.18C1154.1 399.297 1155.11 394.071 1157.07 389.454L1151.54 387.114C1149.23 392.567 1148.1 398.604 1148.1 405.18L1154.1 405.18ZM1157.06 389.471C1159 384.973 1161.74 381.495 1165.28 378.939L1161.76 374.077C1157.27 377.324 1153.88 381.696 1151.55 387.097L1157.06 389.471ZM1165.28 378.939C1168.74 376.435 1172.86 375.104 1177.77 375.028L1177.68 369.028C1171.67 369.122 1166.32 370.778 1161.76 374.077L1165.28 378.939ZM1174.73 372.028L1174.73 391.228L1180.73 391.228L1180.73 372.028L1174.73 372.028ZM1177.52 388.235C1173.23 388.535 1169.56 390.071 1166.82 393.03L1171.23 397.106C1172.75 395.457 1174.89 394.433 1177.94 394.221L1177.52 388.235ZM1166.79 393.07C1164.04 396.149 1162.82 400.175 1162.82 404.796L1168.82 404.796C1168.82 401.225 1169.74 398.766 1171.26 397.066L1166.79 393.07ZM1162.82 404.796C1162.82 409.427 1163.91 413.468 1166.45 416.556L1171.09 412.748C1169.7 411.058 1168.82 408.527 1168.82 404.796L1162.82 404.796ZM1166.49 416.604C1169.13 419.682 1172.62 421.236 1176.7 421.236L1176.7 415.236C1174.31 415.236 1172.5 414.401 1171.05 412.7L1166.49 416.604ZM1176.7 421.236C1180.02 421.236 1182.96 420.197 1185.3 417.979L1181.17 413.629C1180.09 414.654 1178.68 415.236 1176.7 415.236L1176.7 421.236ZM1185.3 417.979C1187.37 416.011 1188.93 413.567 1190 410.724L1184.39 408.596C1183.6 410.702 1182.51 412.354 1181.17 413.629L1185.3 417.979ZM1189.96 410.842C1191.06 408.276 1192.21 404.804 1193.42 400.485L1187.64 398.867C1186.46 403.082 1185.39 406.265 1184.44 408.478L1189.96 410.842ZM1193.41 400.522C1195.09 394.789 1196.71 390.187 1198.26 386.68L1192.78 384.256C1191.08 388.087 1189.38 392.958 1187.65 398.829L1193.41 400.522ZM1198.23 386.758C1199.73 383.615 1201.94 380.854 1204.94 378.472L1201.21 373.776C1197.55 376.684 1194.73 380.153 1192.81 384.178L1198.23 386.758ZM1204.87 378.524C1207.62 376.462 1211.45 375.284 1216.64 375.284L1216.64 369.284C1210.57 369.284 1205.35 370.666 1201.27 373.724L1204.87 378.524ZM1216.64 375.284C1221.41 375.284 1225.41 376.467 1228.79 378.74L1232.14 373.764C1227.66 370.746 1222.46 369.284 1216.64 369.284L1216.64 375.284ZM1228.79 378.74C1232.19 381.031 1234.82 384.267 1236.67 388.57L1242.18 386.206C1239.93 380.952 1236.59 376.763 1232.14 373.764L1228.79 378.74ZM1236.68 388.611C1238.62 392.944 1239.62 397.977 1239.62 403.772L1245.62 403.772C1245.62 397.279 1244.5 391.39 1242.16 386.165L1236.68 388.611ZM1239.62 403.772C1239.62 412.494 1237.49 419.25 1233.49 424.311L1238.19 428.033C1243.23 421.659 1245.62 413.482 1245.62 403.772L1239.62 403.772ZM1233.46 424.35C1229.6 429.399 1224.19 432.239 1216.93 432.78L1217.37 438.764C1226.15 438.11 1233.21 434.551 1238.22 427.994L1233.46 424.35ZM1220.15 435.772L1220.15 416.06L1214.15 416.06L1214.15 435.772L1220.15 435.772ZM1217.32 419.055C1221.27 418.836 1224.58 417.082 1227.05 413.956L1222.35 410.228C1220.91 412.051 1219.18 412.943 1216.99 413.065L1217.32 419.055ZM1226.98 414.044C1229.61 410.976 1230.78 407.017 1230.78 402.492L1224.78 402.492C1224.78 405.988 1223.89 408.43 1222.43 410.14L1226.98 414.044ZM1230.78 402.492C1230.78 398.473 1229.74 394.915 1227.39 392.114L1222.79 395.974C1224.02 397.44 1224.78 399.514 1224.78 402.492L1230.78 402.492ZM1227.35 392.068C1224.84 389.21 1221.32 387.972 1217.28 387.972L1217.28 393.972C1220.07 393.972 1221.75 394.782 1222.83 396.02L1227.35 392.068ZM1217.28 387.972C1214.18 387.972 1211.42 388.995 1209.2 391.098L1213.33 395.454C1214.35 394.485 1215.6 393.972 1217.28 393.972L1217.28 387.972ZM1209.09 391.213C1207.29 393.111 1205.83 395.37 1204.68 397.946L1210.17 400.382C1211.07 398.35 1212.17 396.683 1213.44 395.339L1209.09 391.213ZM1204.63 398.067C1203.65 400.569 1202.51 403.988 1201.22 408.286L1206.97 410.01C1208.24 405.774 1209.32 402.537 1210.22 400.261L1204.63 398.067ZM1201.22 408.302C1199.53 414.024 1197.88 418.605 1196.26 422.091L1201.7 424.621C1203.49 420.768 1205.24 415.878 1206.97 409.994L1201.22 408.302ZM1196.26 422.091C1194.76 425.297 1192.52 428.084 1189.46 430.457L1193.13 435.199C1196.9 432.281 1199.77 428.753 1201.7 424.621L1196.26 422.091ZM1189.46 430.457C1186.7 432.591 1182.93 433.796 1177.86 433.796L1177.86 439.796C1183.88 439.796 1189.06 438.356 1193.13 435.199L1189.46 430.457ZM1177.86 433.796C1173.63 433.796 1169.72 432.709 1166.1 430.516L1162.99 435.652C1167.56 438.409 1172.53 439.796 1177.86 439.796L1177.86 433.796ZM1166.1 430.516C1162.53 428.362 1159.6 425.175 1157.35 420.824L1152.02 423.584C1154.72 428.791 1158.37 432.857 1162.99 435.652L1166.1 430.516ZM1157.37 420.862C1155.23 416.585 1154.1 411.39 1154.1 405.18L1148.1 405.18C1148.1 412.111 1149.36 418.266 1152 423.546L1157.37 420.862ZM1241.34 526.444L1241.34 529.444L1244.34 529.444L1244.34 526.444L1241.34 526.444ZM1152 526.444L1149 526.444L1149 529.444L1152 529.444L1152 526.444ZM1152 508.524L1152 505.524L1149 505.524L1149 508.524L1152 508.524ZM1190.02 508.524L1190.02 511.524L1193.02 511.524L1193.02 508.524L1190.02 508.524ZM1190.02 470.252L1193.02 470.252L1193.02 467.252L1190.02 467.252L1190.02 470.252ZM1152 470.252L1149 470.252L1149 473.252L1152 473.252L1152 470.252ZM1152 452.332L1152 449.332L1149 449.332L1149 452.332L1152 452.332ZM1241.34 452.332L1244.34 452.332L1244.34 449.332L1241.34 449.332L1241.34 452.332ZM1241.34 470.252L1241.34 473.252L1244.34 473.252L1244.34 470.252L1241.34 470.252ZM1204.61 470.252L1204.61 467.252L1201.61 467.252L1201.61 470.252L1204.61 470.252ZM1204.61 508.524L1201.61 508.524L1201.61 511.524L1204.61 511.524L1204.61 508.524ZM1241.34 508.524L1244.34 508.524L1244.34 505.524L1241.34 505.524L1241.34 508.524ZM1241.34 523.444L1152 523.444L1152 529.444L1241.34 529.444L1241.34 523.444ZM1155 526.444L1155 508.524L1149 508.524L1149 526.444L1155 526.444ZM1152 511.524L1190.02 511.524L1190.02 505.524L1152 505.524L1152 511.524ZM1193.02 508.524L1193.02 470.252L1187.02 470.252L1187.02 508.524L1193.02 508.524ZM1190.02 467.252L1152 467.252L1152 473.252L1190.02 473.252L1190.02 467.252ZM1155 470.252L1155 452.332L1149 452.332L1149 470.252L1155 470.252ZM1152 455.332L1241.34 455.332L1241.34 449.332L1152 449.332L1152 455.332ZM1238.34 452.332L1238.34 470.252L1244.34 470.252L1244.34 452.332L1238.34 452.332ZM1241.34 467.252L1204.61 467.252L1204.61 473.252L1241.34 473.252L1241.34 467.252ZM1201.61 470.252L1201.61 508.524L1207.61 508.524L1207.61 470.252L1201.61 470.252ZM1204.61 511.524L1241.34 511.524L1241.34 505.524L1204.61 505.524L1204.61 511.524ZM1238.34 508.524L1238.34 526.444L1244.34 526.444L1244.34 508.524L1238.34 508.524ZM1241.34 562.002L1241.34 565.002L1244.34 565.002L1244.34 562.002L1241.34 562.002ZM1152 562.002L1149 562.002L1149 565.002L1152 565.002L1152 562.002ZM1152 544.082L1152 541.082L1149 541.082L1149 544.082L1152 544.082ZM1241.34 544.082L1244.34 544.082L1244.34 541.082L1241.34 541.082L1241.34 544.082ZM1241.34 559.002L1152 559.002L1152 565.002L1241.34 565.002L1241.34 559.002ZM1155 562.002L1155 544.082L1149 544.082L1149 562.002L1155 562.002ZM1152 547.082L1241.34 547.082L1241.34 541.082L1152 541.082L1152 547.082ZM1238.34 544.082L1238.34 562.002L1244.34 562.002L1244.34 544.082L1238.34 544.082ZM1156.99 598.139L1159.61 599.607L1156.99 598.139ZM1173.25 581.499L1171.73 578.91L1171.73 578.914L1171.72 578.918L1173.25 581.499ZM1220.35 581.499L1218.82 584.08L1218.83 584.084L1218.84 584.088L1220.35 581.499ZM1236.74 598.139L1239.35 596.671L1239.35 596.671L1236.74 598.139ZM1236.74 644.219L1234.13 642.738L1234.12 642.744L1234.12 642.751L1236.74 644.219ZM1220.35 660.731L1218.86 658.128L1218.84 658.139L1218.82 658.15L1220.35 660.731ZM1173.25 660.731L1174.76 658.142L1174.75 658.136L1173.25 660.731ZM1156.99 644.219L1159.61 642.751L1159.61 642.751L1156.99 644.219ZM1170.69 635.387L1168.1 636.899L1168.11 636.919L1168.12 636.938L1170.69 635.387ZM1181.18 644.987L1179.82 647.66L1179.82 647.66L1181.18 644.987ZM1212.54 644.987L1211.18 642.314L1211.17 642.319L1211.16 642.325L1212.54 644.987ZM1222.91 635.387L1220.32 633.875L1220.32 633.875L1222.91 635.387ZM1222.91 606.843L1225.52 605.355L1225.51 605.343L1225.5 605.331L1222.91 606.843ZM1212.54 597.243L1211.16 599.905L1211.17 599.911L1211.18 599.916L1212.54 597.243ZM1181.18 597.243L1182.55 599.916L1182.55 599.916L1181.18 597.243ZM1170.69 606.843L1168.12 605.292L1168.1 605.323L1168.08 605.355L1170.69 606.843ZM1154.1 621.179C1154.1 613.308 1155.95 606.136 1159.61 599.607L1154.38 596.671C1150.19 604.136 1148.1 612.325 1148.1 621.179L1154.1 621.179ZM1159.61 599.607C1163.28 593.07 1168.32 587.907 1174.78 584.08L1171.72 578.918C1164.35 583.283 1158.56 589.213 1154.38 596.671L1159.61 599.607ZM1174.76 584.088C1181.26 580.284 1188.63 578.355 1196.93 578.355L1196.93 572.355C1187.65 572.355 1179.23 574.522 1171.73 578.91L1174.76 584.088ZM1196.93 578.355C1205.14 578.355 1212.41 580.281 1218.82 584.08L1221.88 578.918C1214.47 574.525 1206.12 572.355 1196.93 572.355L1196.93 578.355ZM1218.84 584.088C1225.38 587.918 1230.46 593.08 1234.12 599.607L1239.35 596.671C1235.16 589.204 1229.32 583.272 1221.87 578.91L1218.84 584.088ZM1234.12 599.607C1237.78 606.136 1239.62 613.308 1239.62 621.179L1245.62 621.179C1245.62 612.325 1243.54 604.136 1239.35 596.671L1234.12 599.607ZM1239.62 621.179C1239.62 629.141 1237.78 636.306 1234.13 642.738L1239.34 645.7C1243.54 638.308 1245.62 630.113 1245.62 621.179L1239.62 621.179ZM1234.12 642.751C1230.46 649.273 1225.39 654.386 1218.86 658.128L1221.84 663.334C1229.31 659.055 1235.16 653.16 1239.35 645.687L1234.12 642.751ZM1218.82 658.15C1212.41 661.949 1205.14 663.875 1196.93 663.875L1196.93 669.875C1206.12 669.875 1214.47 667.705 1221.88 663.312L1218.82 658.15ZM1196.93 663.875C1188.63 663.875 1181.26 661.946 1174.76 658.142L1171.73 663.32C1179.23 667.708 1187.65 669.875 1196.93 669.875L1196.93 663.875ZM1174.75 658.136C1168.31 654.396 1163.27 649.282 1159.61 642.751L1154.38 645.687C1158.56 653.15 1164.36 659.045 1171.74 663.326L1174.75 658.136ZM1159.61 642.751C1155.95 636.222 1154.1 629.05 1154.1 621.179L1148.1 621.179C1148.1 630.033 1150.19 638.222 1154.38 645.687L1159.61 642.751ZM1164.1 621.179C1164.1 627.014 1165.41 632.285 1168.1 636.899L1173.28 633.875C1171.19 630.297 1170.1 626.096 1170.1 621.179L1164.1 621.179ZM1168.12 636.938C1170.9 641.543 1174.83 645.118 1179.82 647.66L1182.55 642.314C1178.49 640.248 1175.42 637.423 1173.26 633.836L1168.12 636.938ZM1179.82 647.66C1184.84 650.214 1190.56 651.443 1196.93 651.443L1196.93 645.443C1191.34 645.443 1186.58 644.368 1182.55 642.314L1179.82 647.66ZM1196.93 651.443C1203.29 651.443 1208.99 650.215 1213.93 647.649L1211.16 642.325C1207.23 644.367 1202.51 645.443 1196.93 645.443L1196.93 651.443ZM1213.91 647.66C1218.9 645.114 1222.8 641.527 1225.5 636.899L1220.32 633.875C1218.24 637.439 1215.23 640.252 1211.18 642.314L1213.91 647.66ZM1225.5 636.899C1228.19 632.285 1229.5 627.014 1229.5 621.179L1223.5 621.179C1223.5 626.096 1222.41 630.297 1220.32 633.875L1225.5 636.899ZM1229.5 621.179C1229.5 615.343 1228.19 610.04 1225.52 605.355L1220.31 608.331C1222.41 612.008 1223.5 616.263 1223.5 621.179L1229.5 621.179ZM1225.5 605.331C1222.8 600.703 1218.9 597.116 1213.91 594.57L1211.18 599.916C1215.23 601.978 1218.24 604.791 1220.32 608.355L1225.5 605.331ZM1213.93 594.581C1208.99 592.015 1203.29 590.787 1196.93 590.787L1196.93 596.787C1202.51 596.787 1207.23 597.863 1211.16 599.905L1213.93 594.581ZM1196.93 590.787C1190.56 590.787 1184.84 592.016 1179.82 594.57L1182.55 599.916C1186.58 597.862 1191.34 596.787 1196.93 596.787L1196.93 590.787ZM1179.82 594.57C1174.83 597.112 1170.9 600.687 1168.12 605.292L1173.26 608.394C1175.42 604.807 1178.49 601.982 1182.55 599.916L1179.82 594.57ZM1168.08 605.355C1165.41 610.04 1164.1 615.343 1164.1 621.179L1170.1 621.179C1170.1 616.263 1171.19 612.008 1173.29 608.331L1168.08 605.355ZM1152 756.623L1149 756.623L1149 759.623L1152 759.623L1152 756.623ZM1152 738.703L1150.34 736.201L1149 737.091L1149 738.703L1152 738.703ZM1213.31 698.127L1214.97 700.629L1223.28 695.127L1213.31 695.127L1213.31 698.127ZM1152 698.127L1149 698.127L1149 701.127L1152 701.127L1152 698.127ZM1152 680.207L1152 677.207L1149 677.207L1149 680.207L1152 680.207ZM1241.47 680.207L1244.47 680.207L1244.47 677.207L1241.47 677.207L1241.47 680.207ZM1241.47 698.127L1243.13 700.63L1244.47 699.741L1244.47 698.127L1241.47 698.127ZM1180.03 738.703L1178.38 736.2L1170.05 741.703L1180.03 741.703L1180.03 738.703ZM1241.47 738.703L1244.47 738.703L1244.47 735.703L1241.47 735.703L1241.47 738.703ZM1241.47 756.623L1241.47 759.623L1244.47 759.623L1244.47 756.623L1241.47 756.623ZM1155 756.623L1155 738.703L1149 738.703L1149 756.623L1155 756.623ZM1153.66 741.205L1214.97 700.629L1211.66 695.625L1150.34 736.201L1153.66 741.205ZM1213.31 695.127L1152 695.127L1152 701.127L1213.31 701.127L1213.31 695.127ZM1155 698.127L1155 680.207L1149 680.207L1149 698.127L1155 698.127ZM1152 683.207L1241.47 683.207L1241.47 677.207L1152 677.207L1152 683.207ZM1238.47 680.207L1238.47 698.127L1244.47 698.127L1244.47 680.207L1238.47 680.207ZM1239.82 695.624L1178.38 736.2L1181.69 741.206L1243.13 700.63L1239.82 695.624ZM1180.03 741.703L1241.47 741.703L1241.47 735.703L1180.03 735.703L1180.03 741.703ZM1238.47 738.703L1238.47 756.623L1244.47 756.623L1244.47 738.703L1238.47 738.703ZM1241.47 753.623L1152 753.623L1152 759.623L1241.47 759.623L1241.47 753.623Z" fill="#FFFDFD"/>
<circle cx="287" cy="800" r="67" fill="#ED1A22" fill-opacity="0.13"/>
</svg>
