<svg width="159" height="34" viewBox="0 0 159 34" fill="none" xmlns="http://www.w3.org/2000/svg">
<path d="M18.76 4.92V10.4H7.32V16.32H15.88V21.64H7.32V33H0.48V4.92H18.76ZM20.995 21.8C20.995 19.5067 21.4217 17.4933 22.275 15.76C23.155 14.0267 24.3417 12.6933 25.835 11.76C27.3283 10.8267 28.995 10.36 30.835 10.36C32.4083 10.36 33.7817 10.68 34.955 11.32C36.155 11.96 37.075 12.8 37.715 13.84V10.68H44.555V33H37.715V29.84C37.0483 30.88 36.115 31.72 34.915 32.36C33.7417 33 32.3683 33.32 30.795 33.32C28.9817 33.32 27.3283 32.8533 25.835 31.92C24.3417 30.96 23.155 29.6133 22.275 27.88C21.4217 26.12 20.995 24.0933 20.995 21.8ZM37.715 21.84C37.715 20.1333 37.235 18.7867 36.275 17.8C35.3417 16.8133 34.195 16.32 32.835 16.32C31.475 16.32 30.315 16.8133 29.355 17.8C28.4217 18.76 27.955 20.0933 27.955 21.8C27.955 23.5067 28.4217 24.8667 29.355 25.88C30.315 26.8667 31.475 27.36 32.835 27.36C34.195 27.36 35.3417 26.8667 36.275 25.88C37.235 24.8933 37.715 23.5467 37.715 21.84ZM58.5834 33.32C56.6368 33.32 54.9034 32.9867 53.3834 32.32C51.8634 31.6533 50.6634 30.7467 49.7834 29.6C48.9034 28.4267 48.4101 27.12 48.3034 25.68H55.0634C55.1434 26.4533 55.5034 27.08 56.1434 27.56C56.7834 28.04 57.5701 28.28 58.5034 28.28C59.3568 28.28 60.0101 28.12 60.4634 27.8C60.9434 27.4533 61.1834 27.0133 61.1834 26.48C61.1834 25.84 60.8501 25.3733 60.1834 25.08C59.5168 24.76 58.4368 24.4133 56.9434 24.04C55.3434 23.6667 54.0101 23.28 52.9434 22.88C51.8768 22.4533 50.9568 21.8 50.1834 20.92C49.4101 20.0133 49.0234 18.8 49.0234 17.28C49.0234 16 49.3701 14.84 50.0634 13.8C50.7834 12.7333 51.8234 11.8933 53.1834 11.28C54.5701 10.6667 56.2101 10.36 58.1034 10.36C60.9034 10.36 63.1034 11.0533 64.7034 12.44C66.3301 13.8267 67.2634 15.6667 67.5034 17.96H61.1834C61.0768 17.1867 60.7301 16.5733 60.1434 16.12C59.5834 15.6667 58.8368 15.44 57.9034 15.44C57.1034 15.44 56.4901 15.6 56.0634 15.92C55.6368 16.2133 55.4234 16.6267 55.4234 17.16C55.4234 17.8 55.7568 18.28 56.4234 18.6C57.1168 18.92 58.1834 19.24 59.6234 19.56C61.2768 19.9867 62.6234 20.4133 63.6634 20.84C64.7034 21.24 65.6101 21.9067 66.3834 22.84C67.1834 23.7467 67.5968 24.9733 67.6234 26.52C67.6234 27.8267 67.2501 29 66.5034 30.04C65.7834 31.0533 64.7301 31.8533 63.3434 32.44C61.9834 33.0267 60.3968 33.32 58.5834 33.32ZM85.5281 10.44C88.0881 10.44 90.1415 11.2933 91.6881 13C93.2348 14.68 94.0081 17 94.0081 19.96V33H87.2081V20.88C87.2081 19.3867 86.8215 18.2267 86.0481 17.4C85.2748 16.5733 84.2348 16.16 82.9281 16.16C81.6215 16.16 80.5815 16.5733 79.8081 17.4C79.0348 18.2267 78.6481 19.3867 78.6481 20.88V33H71.8081V3.4H78.6481V13.68C79.3415 12.6933 80.2881 11.9067 81.4881 11.32C82.6881 10.7333 84.0348 10.44 85.5281 10.44ZM102.201 8.36C101.001 8.36 100.015 8.01333 99.2413 7.32C98.4946 6.6 98.1213 5.72 98.1213 4.68C98.1213 3.61333 98.4946 2.73333 99.2413 2.04C100.015 1.32 101.001 0.959998 102.201 0.959998C103.375 0.959998 104.335 1.32 105.081 2.04C105.855 2.73333 106.241 3.61333 106.241 4.68C106.241 5.72 105.855 6.6 105.081 7.32C104.335 8.01333 103.375 8.36 102.201 8.36ZM105.601 10.68V33H98.7613V10.68H105.601ZM120.718 33.32C118.531 33.32 116.558 32.8533 114.798 31.92C113.065 30.9867 111.691 29.6533 110.678 27.92C109.691 26.1867 109.198 24.16 109.198 21.84C109.198 19.5467 109.705 17.5333 110.718 15.8C111.731 14.04 113.118 12.6933 114.878 11.76C116.638 10.8267 118.611 10.36 120.798 10.36C122.985 10.36 124.958 10.8267 126.718 11.76C128.478 12.6933 129.865 14.04 130.878 15.8C131.891 17.5333 132.398 19.5467 132.398 21.84C132.398 24.1333 131.878 26.16 130.838 27.92C129.825 29.6533 128.425 30.9867 126.638 31.92C124.878 32.8533 122.905 33.32 120.718 33.32ZM120.718 27.4C122.025 27.4 123.131 26.92 124.038 25.96C124.971 25 125.438 23.6267 125.438 21.84C125.438 20.0533 124.985 18.68 124.078 17.72C123.198 16.76 122.105 16.28 120.798 16.28C119.465 16.28 118.358 16.76 117.478 17.72C116.598 18.6533 116.158 20.0267 116.158 21.84C116.158 23.6267 116.585 25 117.438 25.96C118.318 26.92 119.411 27.4 120.718 27.4ZM149.627 10.44C152.24 10.44 154.32 11.2933 155.867 13C157.44 14.68 158.227 17 158.227 19.96V33H151.427V20.88C151.427 19.3867 151.04 18.2267 150.267 17.4C149.494 16.5733 148.454 16.16 147.147 16.16C145.84 16.16 144.8 16.5733 144.027 17.4C143.254 18.2267 142.867 19.3867 142.867 20.88V33H136.027V10.68H142.867V13.64C143.56 12.6533 144.494 11.88 145.667 11.32C146.84 10.7333 148.16 10.44 149.627 10.44Z" fill="black"/>
</svg>
